<svg width="141" height="123" viewBox="0 0 141 123" fill="none" xmlns="http://www.w3.org/2000/svg">
<path fill-rule="evenodd" clip-rule="evenodd" d="M106.382 0.159302L106.825 39.0703L72.8863 55.3623L72.4678 18.6229L106.382 0.159302Z" fill="#73CEC0"/>
<path fill-rule="evenodd" clip-rule="evenodd" d="M140.403 61.4733L106.806 80.6903L73.1895 61.4429L106.789 43.7939L140.403 61.4733Z" fill="#73CEC0"/>
<path fill-rule="evenodd" clip-rule="evenodd" d="M67.2135 61.4733L33.6168 80.6903L0 61.4429L33.5994 43.7939L67.2135 61.4733Z" fill="#73CEC0"/>
<path fill-rule="evenodd" clip-rule="evenodd" d="M33.2393 0L68.1103 17.2704L67.2188 54.9061L34.2939 38.5998L33.2393 0Z" fill="#73CEC0"/>
<path fill-rule="evenodd" clip-rule="evenodd" d="M107.33 122.358L72.459 105.087L73.3506 67.4513L106.275 83.7579L107.33 122.358Z" fill="#73CEC0"/>
<path fill-rule="evenodd" clip-rule="evenodd" d="M34.4432 122.708L34 83.797L67.9387 67.505L68.3572 104.244L34.4432 122.708Z" fill="#73CEC0"/>
</svg>
